<svg width="46" height="16" viewBox="0 0 46 16" fill="none" xmlns="http://www.w3.org/2000/svg">
<g id="kobo logo">
<g id="Group">
<path id="Vector" d="M0.251609 1.1416V15.9788H0V1.1416H0.251609ZM1.21331 1.1416V15.9788H0.961705V1.1416H1.21331ZM2.16943 1.1416V15.9788H1.91782V1.1416H2.16943ZM3.12554 1.1416V8.20432L8.97964 1.1416H9.29275L3.25414 8.41077L9.002 15.9788H8.71126L3.12554 8.67155V15.9788H2.87393V1.1416H3.12554ZM4.14875 8.42707L10.2097 1.1416H10.5228L4.46186 8.42707L10.193 15.9788H9.87425L4.14875 8.42707ZM5.33411 8.42707L11.4398 1.1416H11.7529L5.66958 8.47053L11.3783 15.9788H11.0876L5.33411 8.42707ZM6.70957 8.69328H7.00032L12.5637 15.9788H12.2506L6.70957 8.69328Z" fill="#01AD02"/>
<path id="Vector_2" d="M20.8567 6.9108C21.9415 7.94304 22.4838 9.19803 22.4838 10.654H22.2546C22.2546 9.21433 21.7346 8.02453 20.6722 7.03032C19.6323 6.03611 18.4022 5.55258 16.9876 5.55258C15.4276 5.55258 14.1751 6.07957 13.1967 7.13355C12.2182 8.16579 11.7373 9.36102 11.7373 10.6758C11.7373 12.0123 12.235 13.2075 13.2582 14.2397C14.2814 15.272 15.5282 15.7772 17.0099 15.7772V16C15.45 16 14.1584 15.473 13.096 14.419C12.0337 13.3487 11.5137 12.11 11.5137 10.6758C11.5137 9.1763 12.056 7.92131 13.1407 6.88907C14.2422 5.85682 15.5338 5.32983 17.0155 5.32983C18.5028 5.32983 19.7944 5.85682 20.8567 6.9108ZM20.2529 7.53558C21.1475 8.42657 21.5836 9.48054 21.5836 10.6758C21.5836 11.9905 21.1028 13.0662 20.1467 13.892C19.2073 14.7233 18.145 15.1253 16.9596 15.1253C15.7295 15.1253 14.6672 14.6798 13.7502 13.7888C12.8556 12.8761 12.3971 11.8438 12.3971 10.6921C12.3971 9.49684 12.8332 8.4646 13.6887 7.55731C14.5665 6.64459 15.668 6.19909 16.9987 6.19909C18.2736 6.19909 19.3527 6.64459 20.2529 7.53558ZM13.8564 7.69856C13.0457 8.54609 12.6263 9.5403 12.6263 10.6921C12.6263 11.8058 13.0625 12.7783 13.9403 13.6258C14.8125 14.4733 15.8358 14.9025 16.982 14.9025C18.1058 14.9025 19.1067 14.5168 20.0013 13.729C20.8959 12.9413 21.3544 11.909 21.3544 10.6703C21.3544 9.51857 20.935 8.52436 20.0851 7.69313C19.2297 6.8456 18.2121 6.41641 17.0043 6.41641C15.7295 6.42184 14.6672 6.85104 13.8564 7.69856ZM19.6267 8.18209C20.3368 8.88836 20.689 9.74132 20.689 10.6921C20.689 11.6048 20.3144 12.4306 19.5652 13.164C18.8159 13.8703 17.9604 14.2343 17.0043 14.2343C16.0259 14.2343 15.1704 13.892 14.4212 13.2238C13.6943 12.5555 13.3197 11.6863 13.3197 10.654C13.3197 9.65983 13.6719 8.83403 14.382 8.14406C15.1089 7.43778 15.9867 7.09008 17.0043 7.07378C18.0667 7.09008 18.9389 7.45408 19.6267 8.18209ZM14.4994 8.34507C13.8564 9.01332 13.521 9.80108 13.521 10.7138C13.521 11.5831 13.8564 12.3545 14.5442 13.0228C15.2319 13.691 16.0426 14.0333 16.9372 14.0333C17.8766 14.0333 18.6873 13.7073 19.3974 13.0825C20.1075 12.436 20.4598 11.6265 20.4598 10.654C20.4598 9.74132 20.1243 8.95355 19.4366 8.28531C18.7488 7.61707 17.9381 7.2911 16.9987 7.2911C15.9811 7.31283 15.148 7.66053 14.4994 8.34507ZM17.0043 7.95934C17.7983 7.95934 18.4637 8.24185 18.9837 8.79057C19.5037 9.33929 19.7776 9.96407 19.7776 10.6921C19.7776 11.3983 19.4869 12.0068 18.9222 12.5555C18.3574 13.1043 17.7368 13.365 17.0043 13.365C16.2775 13.365 15.6065 13.1206 15.0474 12.6153C14.4827 12.11 14.2143 11.4418 14.2143 10.654H14.4435C14.4435 11.382 14.6951 11.9905 15.2151 12.4578C15.7351 12.925 16.3166 13.1477 17.0043 13.1477C17.6697 13.1477 18.2568 12.9032 18.7768 12.4197C19.2968 11.9145 19.5484 11.3494 19.5484 10.6975C19.5484 10.0293 19.2968 9.46424 18.8215 8.95899C18.3407 8.45373 17.7368 8.18752 17.0099 8.18752V7.95934H17.0043Z" fill="#01AD02"/>
<path id="Vector_3" d="M23.8962 15.8968H23.667V1.14111H23.8962V15.8968ZM24.8132 15.8968H24.584V1.14111H24.8132V15.8968ZM25.7078 15.8968H25.4786V1.14111H25.7078V15.8968ZM26.6024 15.8968H26.3732V1.14111H26.6024V5.73732C27.2902 5.45481 28.0003 5.31355 28.7271 5.31355C30.2703 5.31355 31.5787 5.84054 32.641 6.87278C33.7034 7.90503 34.2457 9.16002 34.2457 10.6378C34.2457 12.7403 32.9933 14.707 30.891 15.5762C30.2256 15.8587 29.4931 16 28.7048 16C27.9332 16 27.2231 15.8587 26.6024 15.5762V15.8968ZM26.6024 15.3317C27.2902 15.636 28.017 15.7772 28.7495 15.7772C30.1641 15.7772 31.3942 15.2937 32.4342 14.2995C33.4965 13.3053 34.0165 12.0938 34.0165 10.6541C34.0165 9.19805 33.4965 7.98109 32.4342 6.99231C31.3942 5.99809 30.1641 5.51457 28.7495 5.51457C28.0394 5.51457 27.3349 5.67755 26.6024 5.98179V6.7098C27.2902 6.36753 28.0003 6.18281 28.7495 6.18281C29.9796 6.18281 31.0643 6.60657 31.9757 7.47583C32.8927 8.32336 33.3511 9.37733 33.3511 10.6541C33.3511 11.9308 32.8927 12.9793 31.9757 13.854C31.0587 14.7015 29.974 15.1307 28.7495 15.1307C28.0003 15.1307 27.2902 14.946 26.6024 14.6037V15.3317ZM31.3494 8.12234C32.0763 8.82861 32.4342 9.65984 32.4342 10.6541C32.4342 11.6863 32.0595 12.5393 31.3103 13.2238C30.5834 13.892 29.7056 14.2343 28.7271 14.2343C27.9555 14.2343 27.2454 14.0116 26.6024 13.5661V14.3538C27.2454 14.7178 27.9779 14.9026 28.7495 14.9026C29.9348 14.9026 30.9581 14.4951 31.8135 13.6856C32.6858 12.8761 33.1275 11.8656 33.1275 10.6486C33.1275 9.45339 32.6914 8.44288 31.8135 7.63338C30.9413 6.80216 29.9181 6.40013 28.7495 6.40013C28.0003 6.40013 27.2902 6.58484 26.6024 6.96514V7.73661C27.2287 7.29111 27.9332 7.06837 28.7495 7.06837C29.7671 7.06837 30.6449 7.41607 31.3494 8.12234ZM26.6024 13.3053C27.2454 13.7888 27.9555 14.0333 28.7271 14.0333C29.6665 14.0333 30.4772 13.7073 31.1649 13.0608C31.8527 12.4143 32.2049 11.6048 32.2049 10.6541C32.2049 9.68157 31.8527 8.87208 31.1649 8.2473C30.4772 7.60079 29.6832 7.27482 28.7495 7.27482C27.9779 7.27482 27.251 7.51929 26.6024 8.02455V13.3053ZM30.4996 8.54611C31.1873 9.07309 31.5396 9.77937 31.5396 10.6486C31.5396 11.4201 31.2488 12.0666 30.6841 12.5936C30.1194 13.0988 29.4764 13.3651 28.7271 13.3651C28.0841 13.3651 27.4747 13.1423 26.9547 12.7185L27.1001 12.5338C27.5809 12.9413 28.14 13.1423 28.7439 13.1423C29.4931 13.1423 30.097 12.8978 30.5778 12.3926C31.0587 11.8873 31.3047 11.2788 31.3047 10.6106C31.3047 9.82283 30.9916 9.19262 30.3486 8.70909L30.4996 8.54611Z" fill="#01AD02"/>
<path id="Vector_4" d="M44.3733 6.9108C45.4581 7.94304 46.0004 9.19803 46.0004 10.654H45.7712C45.7712 9.21433 45.2512 8.02453 44.1888 7.03032C43.1488 6.03611 41.9188 5.55258 40.5042 5.55258C38.9442 5.55258 37.6917 6.07957 36.7133 7.13355C35.7348 8.16579 35.2539 9.36102 35.2539 10.6758C35.2539 12.0123 35.7515 13.2075 36.7748 14.2397C37.798 15.272 39.0448 15.7772 40.5265 15.7772V16C38.9666 16 37.675 15.473 36.6126 14.419C35.5503 13.3487 35.0303 12.11 35.0303 10.6758C35.0303 9.1763 35.5726 7.92131 36.6573 6.88907C37.7588 5.85682 39.0504 5.32983 40.5321 5.32983C42.0194 5.32983 43.311 5.85682 44.3733 6.9108ZM43.7695 7.53558C44.6641 8.42657 45.1002 9.48054 45.1002 10.6758C45.1002 11.9905 44.6194 13.0662 43.6632 13.892C42.7239 14.7233 41.6616 15.1253 40.4762 15.1253C39.2461 15.1253 38.1838 14.6798 37.2668 13.7888C36.3722 12.8761 35.9137 11.8438 35.9137 10.6921C35.9137 9.49684 36.3498 8.4646 37.2053 7.55731C38.0775 6.64459 39.1846 6.19909 40.5153 6.19909C41.7902 6.19909 42.8749 6.64459 43.7695 7.53558ZM37.373 7.69856C36.5623 8.54609 36.1429 9.5403 36.1429 10.6921C36.1429 11.8058 36.5791 12.7783 37.4569 13.6258C38.3291 14.4733 39.3524 14.9025 40.4986 14.9025C41.6224 14.9025 42.6233 14.5168 43.5179 13.729C44.4125 12.9413 44.871 11.909 44.871 10.6703C44.871 9.51857 44.4516 8.52436 43.6017 7.69313C42.7463 6.8456 41.7287 6.41641 40.5209 6.41641C39.2461 6.42184 38.1838 6.85104 37.373 7.69856ZM43.1433 8.18209C43.8534 8.88836 44.2056 9.74132 44.2056 10.6921C44.2056 11.6048 43.831 12.4306 43.0818 13.164C42.3325 13.8703 41.477 14.2343 40.5209 14.2343C39.5425 14.2343 38.687 13.892 37.9378 13.2238C37.2109 12.5555 36.8363 11.6863 36.8363 10.654C36.8363 9.65983 37.1885 8.83403 37.8986 8.14406C38.6255 7.43778 39.5033 7.09008 40.5209 7.07378C41.5833 7.09008 42.4555 7.45408 43.1433 8.18209ZM38.0216 8.34507C37.373 9.01332 37.0431 9.80108 37.0431 10.7138C37.0431 11.5831 37.3786 12.3545 38.0664 13.0228C38.7541 13.691 39.5648 14.0333 40.4594 14.0333C41.3988 14.0333 42.2095 13.7073 42.9196 13.0825C43.6297 12.436 43.982 11.6265 43.982 10.654C43.982 9.74132 43.6465 8.95355 42.9587 8.28531C42.271 7.61707 41.4603 7.2911 40.5209 7.2911C39.4977 7.31283 38.6646 7.66053 38.0216 8.34507ZM40.5209 7.95934C41.3149 7.95934 41.9803 8.24185 42.5003 8.79057C43.0202 9.33929 43.2942 9.96407 43.2942 10.6921C43.2942 11.3983 43.0035 12.0068 42.4388 12.5555C41.874 13.1043 41.2534 13.365 40.5209 13.365C39.7885 13.365 39.1231 13.1206 38.564 12.6153C37.9993 12.11 37.7309 11.4418 37.7309 10.654H37.9601C37.9601 11.382 38.2117 11.9905 38.7317 12.4578C39.2517 12.925 39.8332 13.1477 40.5209 13.1477C41.1863 13.1477 41.7734 12.9032 42.2934 12.4197C42.8134 11.9145 43.065 11.3494 43.065 10.6975C43.065 10.0293 42.8134 9.46424 42.3381 8.95899C41.8573 8.45373 41.2534 8.18752 40.5265 8.18752V7.95934H40.5209Z" fill="#01AD02"/>
</g>
<g id="Group_2">
<path id="Vector_5" d="M42.918 3.57482C42.918 3.39554 42.9347 3.22712 42.9627 3.08043C42.9907 2.92831 43.0466 2.79249 43.1193 2.66754C43.1919 2.54258 43.2926 2.42306 43.4212 2.30897C43.5442 2.19488 43.7063 2.08622 43.902 1.97756C44.0754 1.8852 44.2207 1.80914 44.3493 1.73852C44.4779 1.67332 44.5898 1.60813 44.6792 1.5538C44.7687 1.49404 44.8414 1.43971 44.8805 1.37995C44.9252 1.32018 44.9476 1.24956 44.9476 1.1735C44.9476 1.09201 44.9252 1.01051 44.8805 0.939886C44.8358 0.869259 44.7687 0.81493 44.6848 0.771467C44.601 0.733437 44.4947 0.711705 44.3661 0.711705C44.2711 0.711705 44.1816 0.722572 44.0921 0.749736C44.0027 0.7769 43.93 0.809497 43.8573 0.85296C43.7846 0.896423 43.7175 0.945318 43.656 0.999646C43.5945 1.05397 43.533 1.1083 43.4827 1.16807L42.9627 0.581317C43.0186 0.526988 43.0913 0.461794 43.1919 0.3966C43.2926 0.331406 43.4044 0.266211 43.5442 0.20645C43.6784 0.146688 43.8294 0.0977918 43.9971 0.0597618C44.1648 0.0217318 44.3382 0 44.5227 0C44.8078 0 45.0483 0.0434626 45.2495 0.130388C45.4508 0.217314 45.6018 0.342271 45.708 0.494391C45.8143 0.651944 45.8646 0.831228 45.8646 1.03768C45.8646 1.18436 45.8366 1.31475 45.7863 1.42884C45.7304 1.5375 45.6633 1.63529 45.5794 1.72222C45.4956 1.80914 45.4061 1.87977 45.3055 1.94497C45.2104 2.01016 45.1154 2.06992 45.0259 2.11882C44.8973 2.18401 44.7799 2.24377 44.6736 2.30353C44.5674 2.35786 44.4779 2.41219 44.3997 2.47195C44.3214 2.52628 44.2543 2.58604 44.1928 2.64037C44.1313 2.70013 44.081 2.76533 44.0362 2.83595H45.9429V3.56939H42.918V3.57482Z" fill="#01AD02"/>
</g>
</g>
</svg>
